# File produced by Open Asset Import Library (http://www.assimp.sf.net)
# (assimp v3.1.243586452)

adobe_mdllib Adobe Dimension.mdl

# vertex positions
v -15.316593 634.950806 -99.999939
v -15.316593 634.950806 100.000061
v -15.316593 745.965271 97.537712
v -15.316593 854.246216 90.211334
v -15.316593 957.127258 78.201317
v -15.316593 1052.075317 61.803387
v -15.316593 1136.752441 41.421329
v -15.316593 1209.073486 17.557013
v -15.316593 1267.257813 -9.201947
v -15.316593 1309.872559 -38.196651
v -15.316593 1335.868408 -68.713158
v -15.316593 1344.605469 -100.000053
v 15.316593 634.950806 -99.999939
v 15.316593 634.950806 100.000061
v 15.316593 1344.605469 -100.000053
v 15.316593 1335.868408 -68.713158
v 15.316593 1309.872559 -38.196651
v 15.316593 1267.257813 -9.201947
v 15.316593 1209.073486 17.557013
v 15.316593 1136.752441 41.421329
v 15.316593 1052.075317 61.803387
v 15.316593 957.127258 78.201317
v 15.316593 854.246216 90.211334
v 15.316593 745.965271 97.537712
v 14.153917 617.048645 -71.156494
v 0.000000 617.048645 -72.550537
v 0.000000 633.816833 -71.666367
v 13.981425 633.816833 -70.289314
v 27.763914 617.048645 -67.027946
v 27.425554 633.816833 -66.211082
v 40.306953 617.048645 -60.323559
v 39.815731 633.816833 -59.588398
v 51.301014 617.048645 -51.300961
v 50.675812 633.816833 -50.675758
v 60.323612 617.048645 -40.306889
v 59.588451 633.816833 -39.815670
v 67.028008 617.048645 -27.763847
v 66.211143 633.816833 -27.425495
v 71.156555 617.048645 -14.153859
v 70.289368 633.816833 -13.981369
v 72.550598 617.048645 0.000064
v 71.666428 633.816833 0.000062
v 71.156555 617.048645 14.153981
v 70.289368 633.816833 13.981484
v 67.028008 617.048645 27.763969
v 66.211143 633.816833 27.425610
v 60.323612 617.048645 40.307014
v 59.588451 633.816833 39.815788
v 51.301014 617.048645 51.301083
v 50.675812 633.816833 50.675873
v 40.306950 617.048645 60.323677
v 39.815727 633.816833 59.588512
v 27.763914 617.048645 67.028069
v 27.425554 633.816833 66.211205
v 14.153917 617.048645 71.156624
v 13.981424 633.816833 70.289444
v -0.000006 617.048645 72.550659
v -0.000006 633.816833 71.666489
v -14.153912 617.048645 71.156624
v -13.981421 633.816833 70.289444
v -27.763908 617.048645 67.028069
v -27.425550 633.816833 66.211205
v -40.306953 617.048645 60.323673
v -39.815735 633.816833 59.588509
v -51.301010 617.048645 51.301086
v -50.675808 633.816833 50.675877
v -60.323605 617.048645 40.307030
v -59.588444 633.816833 39.815804
v -67.028008 617.048645 27.763981
v -66.211143 633.816833 27.425621
v -71.156555 617.048645 14.153983
v -70.289368 633.816833 13.981488
v -72.550598 617.048645 0.000060
v -71.666428 633.816833 0.000058
v -71.156555 617.048645 -14.153864
v -70.289368 633.816833 -13.981374
v -67.028000 617.048645 -27.763863
v -66.211136 633.816833 -27.425507
v -60.323624 617.048645 -40.306873
v -59.588463 633.816833 -39.815662
v -51.301022 617.048645 -51.300953
v -50.675823 633.816833 -50.675747
v -40.306953 617.048645 -60.323559
v -39.815735 633.816833 -59.588398
v -27.763908 617.048645 -67.027954
v -27.425550 633.816833 -66.211082
v -13.981418 633.816833 -70.289322
v -14.153911 617.048645 -71.156502
v -19.509022 96.474487 -98.078384
v 0.000000 96.474487 -99.999855
v 19.509031 96.474487 -98.078377
v 38.268345 96.474487 -92.387794
v 55.557018 96.474487 -83.146812
v 70.710670 96.474487 -70.710533
v 83.146950 96.474487 -55.556881
v 92.387947 96.474487 -38.268196
v 98.078522 96.474487 -19.508890
v 99.999992 96.474487 0.000150
v 98.078522 96.474487 19.509178
v 92.387955 96.474487 38.268486
v 83.146957 96.474487 55.557163
v 70.710670 96.474487 70.710823
v 55.557014 96.474487 83.147110
v 38.268345 96.474487 92.388092
v 19.509027 96.474487 98.078674
v -0.000009 96.474487 100.000145
v -19.509024 96.474487 98.078674
v -38.268341 96.474487 92.388092
v -55.557030 96.474487 83.147102
v -70.710663 96.474487 70.710831
v -83.146950 96.474487 55.557186
v -92.387947 96.474487 38.268501
v -98.078522 96.474487 19.509184
v -99.999992 96.474487 0.000144
v -98.078522 96.474487 -19.508896
v -92.387939 96.474487 -38.268215
v -83.146957 96.474487 -55.556862
v -70.710686 96.474487 -70.710526
v -55.557030 96.474487 -83.146812
v -38.268341 96.474487 -92.387810
v -73.743675 611.205566 -98.587273
v -72.844963 639.660645 -97.385803
v 6.543458 611.205566 122.942223
v 6.463711 639.660706 121.443924
v -53.093273 611.205566 -111.079636
v -52.446217 639.660645 -109.725914
v -17.567114 611.205566 121.856499
v -17.353012 639.660706 120.371429
v 81.303253 639.660645 -90.444260
v 82.306320 611.205566 -91.560104
v -30.402576 611.205566 -119.303238
v -30.032053 639.660645 -117.849312
v -41.002567 611.205566 116.087891
v -40.502865 639.660706 114.673111
v 98.587318 611.205566 -73.743637
v 97.385834 639.660645 -72.844933
v -6.543473 611.205566 -122.942116
v -6.463725 639.660645 -121.443832
v -62.862331 611.205566 105.858101
v -62.096230 639.660706 104.568001
v 111.079689 611.205566 -53.093231
v 109.725960 639.660645 -52.446190
v 17.567108 611.205566 -121.856392
v 17.353012 639.660645 -120.371315
v -82.306320 611.205566 91.560211
v -81.303261 639.660645 90.444366
v 119.303314 611.205566 -30.402504
v 117.849358 639.660645 -30.031982
v 41.002567 611.205566 -116.087784
v 40.502872 639.660645 -114.673019
v -98.587326 611.205566 73.743774
v -97.385849 639.660645 72.845047
v 122.942162 611.205566 -6.543402
v 121.443878 639.660645 -6.463661
v 62.862335 611.205566 -105.857964
v 62.096233 639.660645 -104.567894
v -111.079689 611.205566 53.093357
v -109.725960 639.660645 52.446304
v 121.856422 611.205566 17.567160
v 120.371376 639.660645 17.353067
v -119.303299 611.205566 30.402615
v -117.849365 639.660645 30.032097
v 116.087830 611.205566 41.002628
v 114.673058 639.660645 40.502930
v -122.942162 611.205566 6.543543
v -121.443878 639.660645 6.463781
v 105.858017 611.205566 62.862381
v 104.567924 639.660645 62.096268
v -121.856438 611.205566 -17.567007
v -120.371376 639.660645 -17.352922
v 91.560165 611.205566 82.306389
v 90.444328 639.660645 81.303307
v -116.087837 611.205566 -41.002499
v -114.673065 639.660645 -40.502800
v 73.743690 611.205566 98.587387
v 72.844971 639.660706 97.385902
v -105.858017 611.205566 -62.862247
v -104.567940 639.660645 -62.096153
v 53.093300 611.205566 111.079742
v 52.446259 639.660706 109.726006
v -91.560165 611.205566 -82.306259
v -90.444328 639.660645 -81.303200
v 30.402563 611.205566 119.303360
v 30.032047 639.660706 117.849403

# UV coordinates
vt 0.375000 0.250000
vt 0.375000 0.000000
vt 0.414109 0.003078
vt 0.452254 0.012236
vt 0.488498 0.027248
vt 0.521946 0.047746
vt 0.551777 0.073223
vt 0.577254 0.103054
vt 0.597752 0.136502
vt 0.612764 0.172746
vt 0.621922 0.210891
vt 0.625000 0.250000
vt 0.125000 0.750000
vt 0.125000 0.500000
vt 0.375000 0.500000
vt 0.375000 0.750000
vt 0.625000 0.500000
vt 0.625000 0.539109
vt 0.875000 0.500000
vt 0.875000 0.539109
vt 0.625000 0.577254
vt 0.875000 0.577254
vt 0.625000 0.613498
vt 0.875000 0.613498
vt 0.625000 0.646946
vt 0.875000 0.646946
vt 0.625000 0.750000
vt 0.875000 0.750000
vt 0.521946 0.750000
vt 0.625000 1.000000
vt 0.521946 1.000000
vt 0.488498 0.750000
vt 0.488498 1.000000
vt 0.452254 0.750000
vt 0.452254 1.000000
vt 0.414109 0.750000
vt 0.414109 1.000000
vt 0.375000 1.000000
vt 0.621922 0.539109
vt 0.612764 0.577254
vt 0.597752 0.613498
vt 0.577254 0.646946
vt 0.551777 0.676777
vt 0.521946 0.702254
vt 0.488498 0.722752
vt 0.452254 0.737764
vt 0.414109 0.746922
vt 0.024634 0.473050
vt 0.026262 0.499986
vt 0.036007 0.499911
vt 0.034921 0.473821
vt 0.023442 0.449746
vt 0.033634 0.450893
vt 0.022866 0.428635
vt 0.032547 0.429847
vt 0.021876 0.410050
vt 0.031218 0.411420
vt 0.020747 0.393539
vt 0.029739 0.395352
vt 0.021015 0.379173
vt 0.028256 0.381385
vt 0.025834 0.369837
vt 0.029261 0.373484
vt 0.034877 0.365387
vt 0.034853 0.368415
vt 0.044014 0.369865
vt 0.040435 0.372492
vt 0.048701 0.381234
vt 0.041305 0.384707
vt 0.049817 0.394223
vt 0.041251 0.395990
vt 0.049214 0.409654
vt 0.040111 0.411088
vt 0.048430 0.428123
vt 0.038850 0.429244
vt 0.047834 0.449194
vt 0.037590 0.449908
vt 0.046566 0.472993
vt 0.036134 0.473837
vt 0.044954 0.500065
vt 0.035210 0.500139
vt 0.046580 0.526996
vt 0.036295 0.526226
vt 0.047767 0.550293
vt 0.037581 0.549149
vt 0.048336 0.571385
vt 0.038667 0.570179
vt 0.049307 0.589919
vt 0.039985 0.588561
vt 0.050390 0.606332
vt 0.041412 0.604493
vt 0.050090 0.620797
vt 0.042629 0.617877
vt 0.045702 0.630966
vt 0.042144 0.628336
vt 0.036835 0.634614
vt 0.036687 0.631567
vt 0.027646 0.629322
vt 0.031220 0.625621
vt 0.022467 0.618821
vt 0.029586 0.616060
vt 0.021376 0.606007
vt 0.029964 0.604305
vt 0.022009 0.590491
vt 0.031134 0.589051
vt 0.022793 0.571967
vt 0.032384 0.570838
vt 0.023385 0.550871
vt 0.033634 0.550154
vt 0.035086 0.526217
vt 0.024651 0.527063
vt 0.033672 0.539369
vt 0.033372 0.500062
vt 0.033573 0.460453
vt 0.030397 0.421581
vt 0.023126 0.374710
vt 0.012038 0.313049
vt 0.001325 0.236635
vt 0.000085 0.155237
vt 0.010240 0.073288
vt 0.035203 0.000085
vt 0.061208 0.067204
vt 0.071196 0.152178
vt 0.067214 0.239819
vt 0.058098 0.314051
vt 0.048188 0.373454
vt 0.040634 0.421305
vt 0.037547 0.460686
vt 0.037845 0.499987
vt 0.037643 0.539591
vt 0.040819 0.578453
vt 0.048092 0.625308
vt 0.059193 0.686957
vt 0.069936 0.763389
vt 0.071196 0.844811
vt 0.060988 0.926712
vt 0.036014 0.999915
vt 0.010020 0.932796
vt 0.000101 0.847776
vt 0.004062 0.760185
vt 0.013151 0.685999
vt 0.023044 0.626608
vt 0.030590 0.578754
vt 0.130209 0.119683
vt 0.130209 0.151240
vt 0.127555 0.151752
vt 0.126656 0.120592
vt 0.133354 0.000125
vt 0.133354 0.109606
vt 0.131467 0.108226
vt 0.130379 0.000085
vt 0.149456 0.045280
vt 0.150489 0.000085
vt 0.152705 0.001470
vt 0.152705 0.046126
vt 0.121102 0.000085
vt 0.121102 0.131818
vt 0.118821 0.130767
vt 0.118309 0.000641
vt 0.086461 0.162287
vt 0.086461 0.000085
vt 0.089292 0.000118
vt 0.089292 0.164310
vt 0.146238 0.077293
vt 0.147379 0.000085
vt 0.149286 0.001663
vt 0.149286 0.077938
vt 0.109475 0.000085
vt 0.109475 0.149311
vt 0.106890 0.148624
vt 0.106806 0.001217
vt 0.077262 0.000085
vt 0.077262 0.166517
vt 0.074401 0.167181
vt 0.074399 0.002888
vt 0.136498 0.000125
vt 0.136498 0.109612
vt 0.134611 0.108231
vt 0.133523 0.000085
vt 0.098091 0.000085
vt 0.098091 0.159051
vt 0.095347 0.158727
vt 0.095344 0.001825
vt 0.080448 0.166764
vt 0.080445 0.001369
vt 0.083288 0.000085
vt 0.083288 0.163641
vt 0.124064 0.000085
vt 0.124064 0.131818
vt 0.121783 0.130767
vt 0.121272 0.000641
vt 0.086291 0.000085
vt 0.086291 0.164428
vt 0.083463 0.164451
vt 0.083458 0.002411
vt 0.089470 0.163136
vt 0.089461 0.001891
vt 0.092233 0.000085
vt 0.092233 0.159879
vt 0.112313 0.000085
vt 0.112313 0.149311
vt 0.109728 0.148624
vt 0.109645 0.001217
vt 0.074229 0.000085
vt 0.074229 0.166517
vt 0.071368 0.167181
vt 0.071366 0.002888
vt 0.104001 0.156133
vt 0.103992 0.002261
vt 0.106637 0.000085
vt 0.106637 0.152938
vt 0.101007 0.000085
vt 0.101007 0.159051
vt 0.098263 0.158727
vt 0.098261 0.001825
vt 0.077435 0.166764
vt 0.077432 0.001369
vt 0.080275 0.000085
vt 0.080275 0.163640
vt 0.115227 0.000085
vt 0.115227 0.138132
vt 0.112869 0.140394
vt 0.112483 0.003371
vt 0.092412 0.163136
vt 0.092403 0.001891
vt 0.095175 0.000085
vt 0.095175 0.159879
vt 0.127137 0.000085
vt 0.127137 0.117429
vt 0.125159 0.119501
vt 0.124234 0.003372
vt 0.101187 0.156134
vt 0.101177 0.002261
vt 0.103822 0.000085
vt 0.103822 0.152938
vt 0.142851 0.000085
vt 0.142851 0.087770
vt 0.140986 0.089726
vt 0.139844 0.003117
vt 0.118140 0.000085
vt 0.118140 0.138142
vt 0.115782 0.140404
vt 0.115396 0.003370
vt 0.142982 0.089896
vt 0.142982 0.144468
vt 0.140911 0.146253
vt 0.139844 0.092356
vt 0.130209 0.000085
vt 0.130209 0.117441
vt 0.128231 0.119513
vt 0.127307 0.003371
vt 0.137077 0.109781
vt 0.137077 0.141338
vt 0.134422 0.141851
vt 0.133523 0.110691
vt 0.139675 0.000085
vt 0.139675 0.087768
vt 0.137809 0.089725
vt 0.136667 0.003118
vt 0.146459 0.135091
vt 0.147492 0.089896
vt 0.149708 0.091281
vt 0.149708 0.135937
vt 0.146289 0.089896
vt 0.146289 0.144468
vt 0.144218 0.146253
vt 0.143151 0.092356
vt 0.143021 0.077291
vt 0.144162 0.000085
vt 0.146069 0.001663
vt 0.146069 0.077936

# vertex normals
vn -1.000000 0.000000 0.000000
vn 0.000000 -1.000000 0.000000
vn 0.000000 -0.000000 -1.000000
vn 0.000000 0.963150 0.268964
vn 0.000000 0.761238 0.648472
vn 0.000000 0.562531 0.826776
vn 0.000000 0.417831 0.908525
vn 0.000000 0.313358 0.949635
vn 0.000000 0.234020 0.972232
vn 0.000000 0.170185 0.985412
vn 0.000000 0.115949 0.993255
vn 0.000000 0.067507 0.997719
vn 0.000000 0.022175 0.999754
vn 1.000000 0.000000 0.000000
vn 0.097883 0.052403 -0.993817
vn 0.289885 0.052403 -0.955626
vn 0.470748 0.052403 -0.880710
vn 0.633522 0.052403 -0.771948
vn 0.771948 0.052403 -0.633522
vn 0.880709 0.052403 -0.470750
vn 0.955626 0.052403 -0.289885
vn 0.993817 0.052403 -0.097883
vn 0.993817 0.052403 0.097883
vn 0.955626 0.052403 0.289885
vn 0.880709 0.052403 0.470749
vn 0.771948 0.052403 0.633522
vn 0.633521 0.052403 0.771949
vn 0.470748 0.052403 0.880710
vn 0.289886 0.052403 0.955625
vn 0.097882 0.052404 0.993817
vn -0.097882 0.052403 0.993817
vn -0.289886 0.052403 0.955626
vn -0.470748 0.052403 0.880710
vn -0.633522 0.052403 0.771948
vn -0.771948 0.052403 0.633522
vn -0.880710 0.052403 0.470749
vn -0.955626 0.052403 0.289885
vn -0.993817 0.052403 0.097883
vn -0.993817 0.052403 -0.097883
vn -0.955625 0.052403 -0.289886
vn -0.880709 0.052403 -0.470749
vn -0.771948 0.052403 -0.633522
vn -0.633522 0.052403 -0.771948
vn -0.470748 0.052403 -0.880710
vn 0.000000 1.000000 -0.000000
vn -0.289885 0.052403 -0.955626
vn -0.097882 0.052403 -0.993817
vn 0.000001 -1.000000 0.000000
vn -0.097882 0.052403 -0.993817
vn -0.289886 0.052403 -0.955626
vn -0.470749 0.052403 -0.880709
vn -0.633522 0.052403 -0.771948
vn -0.771949 0.052403 -0.633521
vn -0.880710 0.052403 -0.470749
vn -0.955625 0.052403 -0.289887
vn -0.993817 0.052403 -0.097882
vn -0.993817 0.052403 0.097882
vn -0.955626 0.052403 0.289886
vn -0.880709 0.052403 0.470749
vn -0.771948 0.052403 0.633522
vn -0.633522 0.052403 0.771948
vn -0.470749 0.052403 0.880710
vn -0.289886 0.052403 0.955625
vn -0.097882 0.052403 0.993817
vn 0.097882 0.052403 0.993817
vn 0.289886 0.052403 0.955625
vn 0.470749 0.052403 0.880710
vn 0.633522 0.052403 0.771948
vn 0.771948 0.052403 0.633522
vn 0.880710 0.052403 0.470749
vn 0.955625 0.052403 0.289886
vn 0.993817 0.052403 0.097882
vn 0.993817 0.052403 -0.097882
vn 0.955625 0.052403 -0.289886
vn 0.880709 0.052403 -0.470749
vn 0.771948 0.052403 -0.633522
vn 0.633522 0.052403 -0.771948
vn 0.470749 0.052403 -0.880710
vn 0.289886 0.052403 -0.955626
vn 0.097883 0.052403 -0.993817
vn -0.998806 0.038072 0.030605
vn 0.847480 0.038072 0.529460
vn -0.985585 0.038072 -0.164841
vn 0.727903 0.038072 0.684622
vn 0.224874 -0.038072 0.973644
vn -0.934489 0.038072 -0.353951
vn 0.580354 0.038072 0.813474
vn -0.030605 0.038072 -0.998806
vn -0.847480 0.038072 -0.529460
vn 0.410502 0.038072 0.911065
vn 0.164841 0.038072 -0.985585
vn -0.727903 0.038072 -0.684622
vn 0.224874 0.038072 0.973644
vn 0.353951 0.038072 -0.934489
vn -0.580354 0.038072 -0.813474
vn 0.030605 0.038072 0.998806
vn 0.529460 0.038072 -0.847480
vn -0.410502 0.038071 -0.911065
vn -0.164841 0.038072 0.985585
vn 0.684622 0.038072 -0.727904
vn -0.353951 0.038072 0.934489
vn 0.813474 0.038072 -0.580354
vn -0.529460 0.038072 0.847480
vn 0.911065 0.038072 -0.410502
vn -0.684621 0.038072 0.727904
vn 0.973644 0.038072 -0.224874
vn -0.813474 0.038072 0.580354
vn 0.998806 0.038072 -0.030605
vn -0.911064 0.038072 0.410502
vn 0.985585 0.038072 0.164841
vn -0.973644 0.038072 0.224874
vn 0.934489 0.038072 0.353951

# Mesh
g Cube
usemtl MATERIAL_MATERIAL
f 1/1/1 2/2/1 3/3/1
f 1/1/1 3/3/1 4/4/1
f 1/1/1 4/4/1 5/5/1
f 1/1/1 5/5/1 6/6/1
f 1/1/1 6/6/1 7/7/1
f 1/1/1 7/7/1 8/8/1
f 1/1/1 8/8/1 9/9/1
f 1/1/1 9/9/1 10/10/1
f 1/1/1 10/10/1 11/11/1
f 11/11/1 12/12/1 1/1/1
f 2/13/2 1/14/2 13/15/2
f 13/15/2 14/16/2 2/13/2
f 13/15/3 1/1/3 12/12/3
f 12/12/3 15/17/3 13/15/3
f 16/18/4 15/17/4 12/19/4
f 12/19/4 11/20/4 16/18/4
f 17/21/5 16/18/5 11/20/5
f 11/20/5 10/22/5 17/21/5
f 18/23/6 17/21/6 10/22/6
f 10/22/6 9/24/6 18/23/6
f 19/25/7 18/23/7 9/24/7
f 9/24/7 8/26/7 19/25/7
f 20/27/8 19/25/8 8/26/8
f 8/26/8 7/28/8 20/27/8
f 21/29/9 20/27/9 7/30/9
f 7/30/9 6/31/9 21/29/9
f 22/32/10 21/29/10 6/31/10
f 6/31/10 5/33/10 22/32/10
f 23/34/11 22/32/11 5/33/11
f 5/33/11 4/35/11 23/34/11
f 24/36/12 23/34/12 4/35/12
f 4/35/12 3/37/12 24/36/12
f 14/16/13 24/36/13 3/37/13
f 3/37/13 2/38/13 14/16/13
f 14/16/14 13/15/14 15/17/14
f 14/16/14 15/17/14 16/39/14
f 14/16/14 16/39/14 17/40/14
f 14/16/14 17/40/14 18/41/14
f 14/16/14 18/41/14 19/42/14
f 14/16/14 19/42/14 20/43/14
f 14/16/14 20/43/14 21/44/14
f 14/16/14 21/44/14 22/45/14
f 14/16/14 22/45/14 23/46/14
f 23/46/14 24/47/14 14/16/14
f 25/48/15 26/49/15 27/50/15
f 27/50/15 28/51/15 25/48/15
f 29/52/16 25/48/16 28/51/16
f 28/51/16 30/53/16 29/52/16
f 31/54/17 29/52/17 30/53/17
f 30/53/17 32/55/17 31/54/17
f 33/56/18 31/54/18 32/55/18
f 32/55/18 34/57/18 33/56/18
f 35/58/19 33/56/19 34/57/19
f 34/57/19 36/59/19 35/58/19
f 37/60/20 35/58/20 36/59/20
f 36/59/20 38/61/20 37/60/20
f 39/62/21 37/60/21 38/61/21
f 38/61/21 40/63/21 39/62/21
f 41/64/22 39/62/22 40/63/22
f 40/63/22 42/65/22 41/64/22
f 43/66/23 41/64/23 42/65/23
f 42/65/23 44/67/23 43/66/23
f 45/68/24 43/66/24 44/67/24
f 44/67/24 46/69/24 45/68/24
f 47/70/25 45/68/25 46/69/25
f 46/69/25 48/71/25 47/70/25
f 49/72/26 47/70/26 48/71/26
f 48/71/26 50/73/26 49/72/26
f 51/74/27 49/72/27 50/73/27
f 50/73/27 52/75/27 51/74/27
f 53/76/28 51/74/28 52/75/28
f 52/75/28 54/77/28 53/76/28
f 55/78/29 53/76/29 54/77/29
f 54/77/29 56/79/29 55/78/29
f 57/80/30 55/78/30 56/79/30
f 56/79/30 58/81/30 57/80/30
f 59/82/31 57/80/31 58/81/31
f 58/81/31 60/83/31 59/82/31
f 61/84/32 59/82/32 60/83/32
f 60/83/32 62/85/32 61/84/32
f 63/86/33 61/84/33 62/85/33
f 62/85/33 64/87/33 63/86/33
f 65/88/34 63/86/34 64/87/34
f 64/87/34 66/89/34 65/88/34
f 67/90/35 65/88/35 66/89/35
f 66/89/35 68/91/35 67/90/35
f 69/92/36 67/90/36 68/91/36
f 68/91/36 70/93/36 69/92/36
f 71/94/37 69/92/37 70/93/37
f 70/93/37 72/95/37 71/94/37
f 73/96/38 71/94/38 72/95/38
f 72/95/38 74/97/38 73/96/38
f 75/98/39 73/96/39 74/97/39
f 74/97/39 76/99/39 75/98/39
f 77/100/40 75/98/40 76/99/40
f 76/99/40 78/101/40 77/100/40
f 79/102/41 77/100/41 78/101/41
f 78/101/41 80/103/41 79/102/41
f 81/104/42 79/102/42 80/103/42
f 80/103/42 82/105/42 81/104/42
f 83/106/43 81/104/43 82/105/43
f 82/105/43 84/107/43 83/106/43
f 85/108/44 83/106/44 84/107/44
f 84/107/44 86/109/44 85/108/44
f 30/53/45 28/51/45 27/50/45
f 30/53/45 27/50/45 87/110/45
f 30/53/45 87/110/45 86/109/45
f 30/53/45 86/109/45 84/107/45
f 30/53/45 84/107/45 82/105/45
f 30/53/45 82/105/45 80/103/45
f 30/53/45 80/103/45 78/101/45
f 30/53/45 78/101/45 76/99/45
f 30/53/45 76/99/45 74/97/45
f 30/53/45 74/97/45 72/95/45
f 30/53/45 72/95/45 70/93/45
f 30/53/45 70/93/45 68/91/45
f 30/53/45 68/91/45 66/89/45
f 30/53/45 66/89/45 64/87/45
f 30/53/45 64/87/45 62/85/45
f 30/53/45 62/85/45 60/83/45
f 30/53/45 60/83/45 58/81/45
f 30/53/45 58/81/45 56/79/45
f 30/53/45 56/79/45 54/77/45
f 30/53/45 54/77/45 52/75/45
f 30/53/45 52/75/45 50/73/45
f 30/53/45 50/73/45 48/71/45
f 30/53/45 48/71/45 46/69/45
f 30/53/45 46/69/45 44/67/45
f 30/53/45 44/67/45 42/65/45
f 30/53/45 42/65/45 40/63/45
f 30/53/45 40/63/45 38/61/45
f 30/53/45 38/61/45 36/59/45
f 30/53/45 36/59/45 34/57/45
f 34/57/45 32/55/45 30/53/45
f 88/111/46 85/108/46 86/109/46
f 86/109/46 87/110/46 88/111/46
f 26/49/47 88/111/47 87/110/47
f 87/110/47 27/50/47 26/49/47
f 89/112/48 90/113/48 91/114/48
f 89/112/48 91/114/48 92/115/48
f 89/112/48 92/115/48 93/116/48
f 89/112/48 93/116/48 94/117/48
f 89/112/48 94/117/48 95/118/48
f 89/112/48 95/118/48 96/119/48
f 89/112/48 96/119/48 97/120/48
f 89/112/48 97/120/48 98/121/48
f 89/112/48 98/121/48 99/122/48
f 89/112/48 99/122/48 100/123/48
f 89/112/48 100/123/48 101/124/48
f 89/112/48 101/124/48 102/125/48
f 89/112/48 102/125/48 103/126/48
f 89/112/48 103/126/48 104/127/48
f 89/112/48 104/127/48 105/128/48
f 89/112/48 105/128/48 106/129/48
f 89/112/48 106/129/48 107/130/48
f 89/112/48 107/130/48 108/131/48
f 89/112/48 108/131/48 109/132/48
f 89/112/48 109/132/48 110/133/48
f 89/112/48 110/133/48 111/134/48
f 89/112/48 111/134/48 112/135/48
f 89/112/48 112/135/48 113/136/48
f 89/112/48 113/136/48 114/137/48
f 89/112/48 114/137/48 115/138/48
f 89/112/48 115/138/48 116/139/48
f 89/112/48 116/139/48 117/140/48
f 89/112/48 117/140/48 118/141/48
f 89/112/48 118/141/48 119/142/48
f 119/142/48 120/143/48 89/112/48
f 90/113/49 89/112/49 88/111/49
f 88/111/49 26/49/49 90/113/49
f 89/112/50 120/143/50 85/108/50
f 85/108/50 88/111/50 89/112/50
f 120/143/51 119/142/51 83/106/51
f 83/106/51 85/108/51 120/143/51
f 119/142/52 118/141/52 81/104/52
f 81/104/52 83/106/52 119/142/52
f 118/141/53 117/140/53 79/102/53
f 79/102/53 81/104/53 118/141/53
f 117/140/54 116/139/54 77/100/54
f 77/100/54 79/102/54 117/140/54
f 116/139/55 115/138/55 75/98/55
f 75/98/55 77/100/55 116/139/55
f 115/138/56 114/137/56 73/96/56
f 73/96/56 75/98/56 115/138/56
f 114/137/57 113/136/57 71/94/57
f 71/94/57 73/96/57 114/137/57
f 113/136/58 112/135/58 69/92/58
f 69/92/58 71/94/58 113/136/58
f 112/135/59 111/134/59 67/90/59
f 67/90/59 69/92/59 112/135/59
f 111/134/60 110/133/60 65/88/60
f 65/88/60 67/90/60 111/134/60
f 110/133/61 109/132/61 63/86/61
f 63/86/61 65/88/61 110/133/61
f 109/132/62 108/131/62 61/84/62
f 61/84/62 63/86/62 109/132/62
f 108/131/63 107/130/63 59/82/63
f 59/82/63 61/84/63 108/131/63
f 107/130/64 106/129/64 57/80/64
f 57/80/64 59/82/64 107/130/64
f 106/129/65 105/128/65 55/78/65
f 55/78/65 57/80/65 106/129/65
f 105/128/66 104/127/66 53/76/66
f 53/76/66 55/78/66 105/128/66
f 104/127/67 103/126/67 51/74/67
f 51/74/67 53/76/67 104/127/67
f 103/126/68 102/125/68 49/72/68
f 49/72/68 51/74/68 103/126/68
f 102/125/69 101/124/69 47/70/69
f 47/70/69 49/72/69 102/125/69
f 101/124/70 100/123/70 45/68/70
f 45/68/70 47/70/70 101/124/70
f 100/123/71 99/122/71 43/66/71
f 43/66/71 45/68/71 100/123/71
f 99/122/72 98/121/72 41/64/72
f 41/64/72 43/66/72 99/122/72
f 98/121/73 97/120/73 39/62/73
f 39/62/73 41/64/73 98/121/73
f 97/120/74 96/119/74 37/60/74
f 37/60/74 39/62/74 97/120/74
f 96/119/75 95/118/75 35/58/75
f 35/58/75 37/60/75 96/119/75
f 95/118/76 94/117/76 33/56/76
f 33/56/76 35/58/76 95/118/76
f 94/117/77 93/116/77 31/54/77
f 31/54/77 33/56/77 94/117/77
f 93/116/78 92/115/78 29/52/78
f 29/52/78 31/54/78 93/116/78
f 92/115/79 91/114/79 25/48/79
f 25/48/79 29/52/79 92/115/79
f 91/114/80 90/113/80 26/49/80
f 26/49/80 25/48/80 91/114/80
f 121/144/81 75/145/81 76/146/81
f 76/146/81 122/147/81 121/144/81
f 123/148/82 49/149/82 50/150/82
f 50/150/82 124/151/82 123/148/82
f 125/152/83 77/153/83 78/154/83
f 78/154/83 126/155/83 125/152/83
f 127/156/84 51/157/84 52/158/84
f 52/158/84 128/159/84 127/156/84
f 129/160/85 27/161/85 26/162/85
f 26/162/85 130/163/85 129/160/85
f 131/164/86 79/165/86 80/166/86
f 80/166/86 132/167/86 131/164/86
f 133/168/87 53/169/87 54/170/87
f 54/170/87 134/171/87 133/168/87
f 135/172/88 25/173/88 28/174/88
f 28/174/88 136/175/88 135/172/88
f 137/176/89 81/177/89 82/178/89
f 82/178/89 138/179/89 137/176/89
f 139/180/90 55/181/90 56/182/90
f 56/182/90 140/183/90 139/180/90
f 141/184/91 29/185/91 30/186/91
f 30/186/91 142/187/91 141/184/91
f 143/188/92 83/189/92 84/190/92
f 84/190/92 144/191/92 143/188/92
f 145/192/93 57/193/93 58/194/93
f 58/194/93 146/195/93 145/192/93
f 147/196/94 31/197/94 32/198/94
f 32/198/94 148/199/94 147/196/94
f 149/200/95 85/201/95 86/202/95
f 86/202/95 150/203/95 149/200/95
f 151/204/96 59/205/96 60/206/96
f 60/206/96 152/207/96 151/204/96
f 153/208/97 33/209/97 34/210/97
f 34/210/97 154/211/97 153/208/97
f 155/212/98 88/213/98 87/214/98
f 87/214/98 156/215/98 155/212/98
f 157/216/99 61/217/99 62/218/99
f 62/218/99 158/219/99 157/216/99
f 159/220/100 35/221/100 36/222/100
f 36/222/100 160/223/100 159/220/100
f 161/224/101 63/225/101 64/226/101
f 64/226/101 162/227/101 161/224/101
f 163/228/102 37/229/102 38/230/102
f 38/230/102 164/231/102 163/228/102
f 165/232/103 65/233/103 66/234/103
f 66/234/103 166/235/103 165/232/103
f 167/236/104 39/237/104 40/238/104
f 40/238/104 168/239/104 167/236/104
f 169/240/105 67/241/105 68/242/105
f 68/242/105 170/243/105 169/240/105
f 171/244/106 41/245/106 42/246/106
f 42/246/106 172/247/106 171/244/106
f 173/248/107 69/249/107 70/250/107
f 70/250/107 174/251/107 173/248/107
f 175/252/108 43/253/108 44/254/108
f 44/254/108 176/255/108 175/252/108
f 177/256/109 71/257/109 72/258/109
f 72/258/109 178/259/109 177/256/109
f 179/260/110 45/261/110 46/262/110
f 46/262/110 180/263/110 179/260/110
f 181/264/111 73/265/111 74/266/111
f 74/266/111 182/267/111 181/264/111
f 183/268/112 47/269/112 48/270/112
f 48/270/112 184/271/112 183/268/112
